<svg width="278" height="115" viewBox="0 0 278 115" fill="none" xmlns="http://www.w3.org/2000/svg">
<rect x="0.330078" y="-0.00390625" width="277" height="115" rx="13.3329" fill="#131418"/>
<path fill-rule="evenodd" clip-rule="evenodd" d="M72.8385 76.5076C83.3818 76.5193 91.9381 68.1468 91.9482 57.796C91.9582 47.4526 83.4166 39.0567 72.8748 39.0469C62.3329 39.0371 53.7752 47.4165 53.7651 57.7599C53.7551 68.1108 62.2952 76.4959 72.8385 76.5076ZM64.527 55.1299L64.5332 48.7031L61.4366 48.7003L61.4199 65.3529L64.5146 65.3557L64.5241 59.4871C64.5203 58.5023 64.6206 57.7587 64.8067 57.2553C64.9928 56.752 65.2878 56.3759 65.6964 56.1245C66.1083 55.8721 66.5858 55.7421 67.0714 55.7499C67.521 55.7504 67.8914 55.8487 68.1892 56.0463C68.4808 56.2327 68.6995 56.5105 68.8097 56.8344C68.9271 57.164 68.9815 57.9427 68.9815 59.1705L68.9753 65.3604L72.0744 65.3632L72.0791 58.4901C72.0804 57.4378 72.0281 56.6628 71.9221 56.1652C71.8205 55.6736 71.6182 55.2073 71.3274 54.7946C71.041 54.3835 70.6067 54.0468 70.0335 53.7804C69.4603 53.514 68.8202 53.3796 68.1067 53.3796C66.7187 53.3811 65.5255 53.9646 64.527 55.1299ZM76.7285 55.1416L76.7347 48.7148L73.6385 48.711L73.6223 65.3632L76.7199 65.3674L76.7237 59.4988C76.7247 58.514 76.8154 57.7709 77.0063 57.267C77.1972 56.7632 77.4912 56.3876 77.8979 56.1362C78.3097 55.8836 78.7873 55.7535 79.2729 55.7616C79.7225 55.762 80.0958 55.8599 80.3907 56.058C80.6826 56.244 80.9013 56.5217 81.0112 56.8456C81.1277 57.1756 81.1859 57.9544 81.1859 59.1822L81.1792 65.3717L84.2744 65.3745L84.2811 58.5018C84.2824 57.4511 84.2302 56.6759 84.1246 56.1765C84.0227 55.685 83.8204 55.2189 83.5299 54.8063C83.2444 54.3977 82.8141 54.0596 82.2388 53.7921C81.6635 53.5245 81.02 53.3908 80.3082 53.3908C78.9202 53.3927 77.727 53.9763 76.7285 55.1416Z" fill="white"/>
<path fill-rule="evenodd" clip-rule="evenodd" d="M213.024 42.9414L201.992 42.9924C196.482 42.9924 192.079 47.4074 192.079 52.9188V61.518C192.079 62.8282 192.337 64.1255 192.838 65.3359C193.34 66.5464 194.074 67.6462 195.001 68.5727C195.927 69.499 197.027 70.2338 198.238 70.7351C199.448 71.2364 200.745 71.4944 202.055 71.4943H213.024C214.334 71.4945 215.632 71.2365 216.842 70.7352C218.053 70.2339 219.152 69.4991 220.079 68.5727C221.005 67.6463 221.74 66.5465 222.242 65.336C222.743 64.1256 223.001 62.8282 223.001 61.518V52.9188C223.001 50.2727 221.95 47.7351 220.079 45.864C218.208 43.993 215.67 42.9417 213.024 42.9414ZM204.666 58.6006V59.0853C204.666 61.6314 204 63.2466 201.912 63.2362C199.727 63.2362 198.72 61.1946 198.72 57.2038C198.72 53.0893 199.936 51.1413 202.805 51.1413C204.122 51.1504 205.411 51.5221 206.53 52.2157V49.9951C205.751 49.4252 204.326 48.9873 202.672 48.9873C198.298 48.9873 195.912 52.1075 195.912 57.2038C195.912 62.4302 198.098 65.3943 201.86 65.3943C205.51 65.3943 207.438 63.048 207.438 59.0094V56.4435H201.747V58.6006H204.666ZM214.146 65.4037C217.152 65.4037 219.243 63.2664 219.243 59.389C219.243 55.5314 217.153 53.4034 214.146 53.4034C211.139 53.4034 209.05 55.5408 209.05 59.4181C209.05 63.2664 211.141 65.4037 214.146 65.4037ZM214.15 55.5605C215.661 55.5605 216.421 56.7285 216.421 59.389C216.421 62.0693 215.662 63.2476 214.15 63.2476C212.639 63.2476 211.879 62.0786 211.879 59.4181C211.879 56.7285 212.64 55.5605 214.15 55.5605Z" fill="white"/>
<path d="M130.618 51.3798H129.37C127.103 51.3798 125.909 52.529 125.909 54.2306C125.909 56.1589 126.735 57.0523 128.436 58.2015L129.833 59.1428L125.794 65.1752H122.789L126.409 59.7783C124.319 58.2879 123.149 56.8432 123.149 54.3824C123.149 51.3038 125.285 49.2227 129.341 49.2227H133.379V65.1762H130.609V51.3798H130.618ZM144.795 53.6315V65.1762H142.068V60.3586H138.419V65.1762H135.692V53.6315H138.419V58.2015H142.068V53.6315H144.795ZM157.119 67.8086H154.592V65.1669H148.463V67.8086H145.935V63.015H146.79C147.75 61.0867 147.94 57.4371 147.94 54.6154V53.6273H155.902V63.015H157.119V67.8086ZM153.175 55.7886H150.287V56.1308C150.287 58.1256 150.079 61.2708 149.318 63.0191H153.175V55.7886ZM163.247 65.3946C159.761 65.3946 157.784 63.4466 157.784 59.4278C157.784 55.9404 159.371 53.3954 162.697 53.3954C165.424 53.3954 167.191 54.9149 167.191 58.9254V60.369H160.606C160.72 62.2984 161.48 63.2386 163.476 63.2386C164.806 63.2386 166.231 62.7352 167.077 62.1559V64.3879C166.279 64.9391 164.995 65.3946 163.247 65.3946ZM160.606 58.3544H164.416V58.1267C164.416 56.683 164 55.5619 162.648 55.5619C161.347 55.5515 160.682 56.5198 160.606 58.3544ZM171.761 59.5037V65.1762H169.025V53.6315H171.761V58.9525L175.624 53.6315H178.38L174.522 58.9525L178.902 65.1669H175.8L171.761 59.5037ZM178.745 59.4091C178.745 55.8926 180.56 53.3944 184.049 53.3944C185.402 53.3944 186.416 53.6221 186.986 53.9456V56.2639C186.434 55.9217 185.398 55.5515 184.344 55.5515C182.557 55.5515 181.569 56.8339 181.569 59.3425C181.569 61.7274 182.377 63.2479 184.325 63.2479C185.474 63.2479 186.301 62.9526 186.986 62.4679V64.6916C186.32 65.1762 185.425 65.404 184.163 65.404C180.512 65.3946 178.744 63.2667 178.744 59.4091H178.745Z" fill="white"/>
<path d="M103.856 58.5308L101.453 55.0176H103.193L104.836 57.5437L106.486 55.0176H108.22L105.804 58.5308L108.343 62.2064H106.596L104.836 59.5114L103.07 62.2064H101.336L103.856 58.5308Z" fill="white"/>
</svg>
