<svg width="277" height="115" viewBox="0 0 277 115" fill="none" xmlns="http://www.w3.org/2000/svg">
<rect y="-0.00390625" width="277" height="115" rx="13.3329" fill="#131418"/>
<path d="M130.515 62.6249H122.148L132.829 48.6035C133.062 48.2957 132.998 47.8467 132.687 47.6158C132.571 47.526 132.416 47.4746 132.26 47.4746H116.807C115.449 47.4746 114.337 48.5779 114.337 49.9249C114.337 51.2718 115.449 52.3751 116.807 52.3751H123.751L113.031 66.4093C112.785 66.7172 112.85 67.1533 113.161 67.3971C113.29 67.4997 113.445 67.551 113.6 67.5382H130.502C131.86 67.474 132.907 66.3195 132.842 64.9597C132.778 63.7025 131.769 62.7019 130.502 62.6378V62.6249H130.515ZM184.517 47.4746C183.159 47.4746 182.047 48.5779 182.047 49.9249V58.1478L168.702 47.6414C168.404 47.3977 167.952 47.4362 167.706 47.744C167.603 47.8723 167.551 48.0263 167.551 48.193V65.088C167.551 66.4349 168.663 67.5382 170.021 67.5382C171.379 67.5382 172.491 66.4478 172.491 65.088V56.865L185.836 67.3842C186.147 67.628 186.599 67.5767 186.845 67.2688C186.948 67.1405 187 66.9866 187 66.8326V49.9249C186.987 48.5651 185.888 47.4746 184.517 47.4746ZM149.201 63.0867C143.55 63.0867 139.334 60.1362 139.334 57.4936C139.334 54.8509 143.563 51.9004 149.201 51.9004C154.852 51.9004 159.068 54.8509 159.068 57.4936C159.068 60.1362 154.865 63.0867 149.201 63.0867ZM149.201 47C141.028 47 134.394 51.6952 134.394 57.4936C134.394 63.292 141.028 67.9872 149.201 67.9872C157.374 67.9872 164.008 63.292 164.008 57.4936C164.008 51.6952 157.374 47 149.201 47ZM100.591 63.0996C97.4745 63.0996 94.9399 60.598 94.9399 57.5064C94.9399 54.4148 97.4615 51.9004 100.578 51.9004C103.695 51.9004 106.229 54.402 106.229 57.4936V57.5064C106.229 60.5852 103.708 63.0867 100.591 63.0996ZM100.591 47C94.7459 47 90.0129 51.6952 90 57.4936C90 63.292 94.733 67.9872 100.578 68C106.423 68 111.156 63.3048 111.169 57.5064V57.4936C111.156 51.6952 106.423 47 100.591 47Z" fill="#EFEFEF"/>
</svg>
