<svg width="278" height="115" viewBox="0 0 278 115" fill="none" xmlns="http://www.w3.org/2000/svg">
<rect x="0.661133" y="-0.00390625" width="277" height="115" rx="13.3329" fill="#131418"/>
<path fill-rule="evenodd" clip-rule="evenodd" d="M87.9149 46.0483C87.8881 46.0748 87.8662 49.9996 87.8662 54.77V63.4434H91.3731C95.1981 63.4434 95.8221 63.4023 96.8587 63.0811C98.6023 62.5409 99.5779 61.6101 100.093 59.9954C100.228 59.5709 100.246 59.393 100.245 58.4309C100.244 57.2018 100.174 56.8469 99.7717 56.0364C99.4246 55.3379 98.6759 54.6088 97.9521 54.2648L97.4131 54.0086L97.7064 53.8397C98.1315 53.5949 98.76 53.0013 99.0276 52.5919C99.5228 51.8341 99.7411 50.9523 99.6733 49.9832C99.5937 48.8446 99.2656 48.0812 98.5562 47.384C98.0687 46.9047 97.5962 46.6261 96.8821 46.397C95.8894 46.0784 95.6697 46.0628 91.7003 46.0305C89.6452 46.0137 87.9418 46.0216 87.9149 46.0483ZM138.489 54.7255V63.4508L142.307 63.4258C145.87 63.4023 146.166 63.3918 146.742 63.2684C148.028 62.9931 148.836 62.5969 149.575 61.8793C150.185 61.2866 150.554 60.6401 150.75 59.8221C150.913 59.138 150.915 57.5848 150.754 56.9942C150.424 55.7877 149.617 54.7773 148.578 54.2709L148.043 54.0099L148.461 53.7445C149.575 53.0364 150.316 51.6704 150.316 50.3243C150.316 49.3181 149.914 48.1667 149.339 47.5248C148.758 46.8758 147.61 46.3294 146.417 46.1334C146.165 46.0921 144.477 46.0511 142.242 46.032L138.489 46V54.7255ZM90.8555 50.8643V53.2907L92.3989 53.2895C94.5354 53.2877 95.1765 53.1821 95.8664 52.7184C96.5191 52.2796 96.8181 51.5396 96.7535 50.5228C96.6799 49.3626 96.0453 48.7009 94.8195 48.506C94.5872 48.469 93.6003 48.4386 92.6263 48.4384L90.8555 48.4379V50.8643ZM141.478 50.8708V53.3038L143.314 53.2733C145.272 53.2408 145.571 53.1999 146.222 52.8756C147.029 52.474 147.452 51.6177 147.373 50.5475C147.285 49.3538 146.667 48.7007 145.442 48.506C145.21 48.469 144.223 48.4386 143.249 48.4384L141.478 48.4379V50.8708ZM132.088 51.4178C130.865 51.5227 129.855 51.863 128.957 52.4728C126.918 53.8579 125.983 56.4219 126.509 59.1858C126.867 61.0714 128.175 62.6168 129.975 63.2806C131.465 63.8303 133.23 63.9091 134.882 63.4994C135.381 63.3758 136.548 62.883 136.622 62.7646C136.651 62.7188 136.046 60.4575 135.988 60.392C135.979 60.3819 135.829 60.4599 135.654 60.5654C135.111 60.8942 134.007 61.2171 133.294 61.2554C131.261 61.3648 129.633 60.2085 129.321 58.4336C129.225 57.8884 129.279 56.8439 129.427 56.3557C129.779 55.1984 130.576 54.3616 131.632 54.0408C131.993 53.9311 132.244 53.9032 132.835 53.9064C133.954 53.9125 134.623 54.1217 135.362 54.696C135.551 54.8422 135.714 54.9523 135.724 54.9405C135.735 54.9286 135.852 54.5311 135.984 54.057C136.116 53.5829 136.266 53.0469 136.317 52.8659C136.458 52.365 136.452 52.3535 135.971 52.1374C134.794 51.6095 133.231 51.3199 132.088 51.4178ZM102.098 57.5689V63.4434H103.462H104.826L104.843 60.7776L104.86 58.1117L105.12 58.1318C105.56 58.1658 105.864 58.4018 106.581 59.2665C107.167 59.9729 109.427 62.8978 109.701 63.3027L109.798 63.447L111.61 63.4293L113.422 63.4115L112.102 61.7194C110.416 59.5562 109.347 58.2576 108.7 57.5857L108.187 57.0523L108.379 56.8476C109.053 56.1327 109.334 55.8247 110.23 54.8195C111.504 53.3879 112.846 51.833 112.874 51.7549C112.888 51.7178 112.266 51.6944 111.272 51.6944H109.647L108.32 53.3067C106.159 55.9322 105.48 56.6111 105.015 56.6111H104.827V54.1528V51.6944H103.462H102.098V57.5689ZM113.275 51.725C113.275 51.7838 114.306 54.4786 114.595 55.1744C115.472 57.2901 116.951 60.3073 117.986 62.0936L118.481 62.9467L117.525 64.7116C117 65.6823 116.282 66.9878 115.93 67.6127C115.578 68.2376 115.29 68.762 115.29 68.778C115.29 68.7941 115.986 68.8071 116.838 68.8071H118.386L119.693 66.2051C121.802 62.0053 123.631 57.9706 126.179 51.9008L126.266 51.6922L124.702 51.7092L123.138 51.7263L122.538 53.3865C121.805 55.4174 121.389 56.4962 120.78 57.952C119.887 60.0872 119.953 59.9557 119.85 59.8245C119.801 59.7604 119.448 59.0902 119.068 58.3352C118.27 56.7524 117.608 55.2072 116.845 53.1471L116.307 51.6944H114.791C113.957 51.6944 113.275 51.7081 113.275 51.725ZM152.72 57.5689V63.4434L153.094 63.4427L153.468 63.442L153.955 62.9774C155.593 61.4169 160.751 56.8043 160.86 56.8032C160.887 56.8029 160.908 58.2969 160.908 60.1231V63.4434H162.273H163.638V57.5689V51.6944H163.24H162.842L162.184 52.2509C160.386 53.7708 158.408 55.5038 155.882 57.7737C155.698 57.939 155.525 58.0755 155.499 58.077C155.472 58.0785 155.45 56.643 155.45 54.8871V51.6944H154.085H152.72V57.5689ZM167.638 51.7742C167.624 51.8181 167.58 52.6873 167.54 53.7058C167.353 58.4114 167.053 60.2167 166.363 60.7871C166.12 60.9885 165.603 61.1447 165.18 61.1447H164.861L164.899 61.3842C164.921 61.5159 164.981 62.0816 165.034 62.6413C165.087 63.2009 165.154 63.6821 165.183 63.7105C165.258 63.7835 166.459 63.6599 166.887 63.5353C167.816 63.2649 168.54 62.6747 169.011 61.805C169.616 60.6886 169.843 59.5536 170.111 56.3078L170.291 54.1208H172.391H174.49V58.7821V63.4434H175.887H177.285V57.5689V51.6944H172.474C168.682 51.6944 167.657 51.7113 167.638 51.7742ZM181.223 52.4766C181.202 52.9068 181.154 53.9053 181.116 54.6955C180.883 59.5591 180.539 60.8126 179.364 61.076C179.203 61.1121 178.947 61.1423 178.795 61.1432C178.576 61.1444 178.519 61.1678 178.519 61.2565C178.52 61.4282 178.709 63.3205 178.75 63.5564L178.786 63.7652L179.318 63.7261C181.291 63.5816 182.397 62.7328 183.044 60.8664C183.369 59.9275 183.532 58.8166 183.749 56.0684C183.804 55.366 183.867 54.6404 183.889 54.4561L183.928 54.1208H186.032H188.137V58.7821V63.4434H189.502H190.866V57.5689V51.6944H186.064H181.262L181.223 52.4766ZM90.871 58.3511L90.888 61.0489L92.7075 61.0451C94.7719 61.0408 95.2097 60.9883 95.9022 60.6622C96.9344 60.1761 97.4115 59.1593 97.2263 57.8403C97.0573 56.6362 96.3624 55.9965 94.9495 55.7447C94.6172 55.6854 93.8883 55.6571 92.6581 55.6555L90.8541 55.6533L90.871 58.3511ZM141.494 58.345L141.511 61.0489L143.363 61.0429C144.391 61.0396 145.374 61.0063 145.572 60.9682C146.453 60.7989 147.069 60.4486 147.441 59.9054C147.738 59.4718 147.857 59.0151 147.855 58.3177C147.851 56.9204 147.282 56.1781 145.93 55.8051C145.615 55.7182 145.15 55.6921 143.508 55.6693L141.477 55.6411L141.494 58.345Z" fill="white"/>
</svg>
