<svg width="277" height="115" viewBox="0 0 277 115" fill="none" xmlns="http://www.w3.org/2000/svg">
<rect x="-0.00439453" y="-0.00390625" width="277" height="115" rx="13.3329" fill="#131418"/>
<path d="M107.64 47.1731C105.785 47.1731 104.509 47.8879 103.698 49.1982C102.885 50.5085 102.885 51.1041 102.885 53.1292V54.2009H101.378V57.0601H102.885V67.7812H106.132V57.0601H109.495V54.2009H106.132V53.1292C106.132 50.9848 106.248 50.6278 107.408 50.1516C107.64 50.0323 107.872 50.0323 108.104 50.0323C108.452 50.0323 108.799 50.1516 109.031 50.2709L109.495 50.5095V47.7696L109.379 47.6503C108.915 47.2934 108.335 47.1741 107.639 47.1741L107.64 47.1731ZM111.467 46.9346H114.713V67.7812H111.467V46.9346ZM124.338 53.9623C120.511 53.9623 117.496 57.0592 117.496 60.9901C117.496 64.921 120.511 68.0179 124.338 68.0179C128.165 68.0179 131.18 64.921 131.18 60.9901C131.18 57.0592 128.165 53.9623 124.338 53.9623ZM124.338 65.2789C122.251 65.2789 120.627 63.4924 120.627 60.9901C120.627 58.4878 122.251 56.7013 124.338 56.7013C126.425 56.7013 128.048 58.4878 128.048 60.9901C128.048 63.4924 126.425 65.2789 124.338 65.2789ZM162.604 62.6583L160.285 55.5112L159.821 54.2009H157.502L157.154 55.5112L154.835 62.6583L152.052 54.3202L152.168 54.2009H148.805L148.921 54.4395L146.138 62.6592L143.819 55.5122L143.355 54.2018H141.036L140.457 55.5122L138.138 62.6592L135.355 54.2018H132.108L137.094 67.7821H139.066L141.965 59.9203L144.865 67.7821H146.836L150.199 58.7292L153.562 67.7821H155.534L158.433 59.9203L161.333 67.7821H163.652L168.753 54.2018H165.507L162.608 62.6592L162.604 62.6583ZM176.171 53.9623C172.344 53.9623 169.329 57.0592 169.329 60.9901C169.329 64.921 172.344 68.0179 176.171 68.0179C179.998 68.0179 183.012 64.921 183.012 60.9901C183.012 57.0592 179.998 53.9623 176.171 53.9623ZM176.171 65.2789C174.084 65.2789 172.46 63.4924 172.46 60.9901C172.46 58.4878 174.084 56.7013 176.171 56.7013C178.258 56.7013 179.881 58.4878 179.881 60.9901C179.881 63.4924 178.258 65.2789 176.171 65.2789ZM200.638 54.2009L197.855 62.6583L195.536 55.5112L195.071 54.2009H192.752L192.404 55.5112L190.085 62.6583L187.302 54.2009H184.055L189.157 67.7812H191.128L194.027 59.9193L196.926 67.7812H198.897L204 54.2009H200.637H200.638ZM84.4486 62.8969L84.3322 55.5112C87.6953 55.035 90.1298 53.0099 91.4057 49.4359C92.5653 46.339 92.7972 41.6933 92.4498 39.191C90.4781 39.6672 87.4634 41.3354 86.5358 42.1695C85.8401 40.8592 84.2167 38.9534 83.0572 38C81.8977 39.0717 80.2744 40.8592 79.5787 42.1695C78.651 41.3354 75.6363 39.6682 73.6647 39.191C73.3163 41.6924 73.5482 46.3381 74.7087 49.4359C75.9846 53.0099 78.4191 55.035 81.7822 55.5112V63.0162C81.7822 63.0162 81.7822 62.8969 81.6658 62.8969C79.926 60.0377 76.5639 56.9408 72.1568 55.7498C71.2292 63.6117 74.3604 72.9032 83.0572 76C91.7541 72.9032 94.8852 63.4924 93.9576 55.6305C89.5514 56.9408 86.3048 60.0377 84.4496 62.8969H84.4486ZM74.5923 59.5614C77.9553 61.5866 81.7813 65.3982 81.6658 72.5453C77.3751 69.6861 75.0561 65.3982 74.5923 59.5614ZM83.0572 52.8906C77.607 52.8906 76.332 47.8879 76.1001 42.8843C77.6079 43.7184 78.9994 44.9094 80.1589 46.2197C80.971 44.4332 81.6667 43.1229 83.0581 41.6933C84.4496 43.1229 85.1453 44.4332 85.9574 46.2197C87.1169 45.0287 88.5083 43.7184 90.0162 43.0036C89.7843 47.8879 88.5083 52.8906 83.0591 52.8906H83.0572ZM84.4486 72.5453C84.4486 65.3982 88.2755 61.4673 91.5222 59.5614C91.1738 65.3982 88.8548 69.687 84.4486 72.5453Z" fill="white"/>
</svg>
