<svg width="278" height="115" viewBox="0 0 278 115" fill="none" xmlns="http://www.w3.org/2000/svg">
<rect x="0.331543" y="-0.00390625" width="277" height="115" rx="13.3329" fill="#131418"/>
<path d="M86.8352 53.6303H90.2681V58.2773H96.1458V53.6303H99.5787V65.6447H96.1458V60.7709H90.2681V65.6447H86.8352V53.6303Z" fill="white"/>
<path d="M108.948 65.9166C108.012 65.9166 107.119 65.7957 106.27 65.5539C105.437 65.297 104.709 64.9192 104.085 64.4205C103.461 63.9067 102.967 63.2644 102.602 62.4937C102.238 61.7078 102.056 60.7935 102.056 59.7508V59.2974C102.056 58.3 102.23 57.431 102.576 56.6905C102.923 55.95 103.4 55.3379 104.007 54.8543C104.614 54.3556 105.316 53.9854 106.114 53.7436C106.911 53.4867 107.769 53.3582 108.688 53.3582C110.856 53.3582 112.503 53.8569 113.63 54.8543C114.757 55.8518 115.32 57.295 115.32 59.1841V60.4535H105.567C105.585 60.9824 105.689 61.4434 105.879 61.8363C106.07 62.2141 106.322 62.5239 106.634 62.7657C106.946 63.0075 107.301 63.1889 107.7 63.3097C108.116 63.4155 108.532 63.4684 108.948 63.4684C109.833 63.4684 110.5 63.3551 110.951 63.1284C111.402 62.9017 111.722 62.5692 111.913 62.131H115.06C114.783 63.3853 114.098 64.3298 113.005 64.9646C111.913 65.5993 110.561 65.9166 108.948 65.9166ZM108.818 55.8064C108.419 55.8064 108.021 55.8518 107.622 55.9424C107.241 56.0331 106.902 56.1767 106.608 56.3731C106.313 56.5696 106.07 56.8341 105.879 57.1665C105.689 57.499 105.585 57.8995 105.567 58.368H111.991C111.974 57.8693 111.878 57.4537 111.705 57.1212C111.549 56.7887 111.324 56.5243 111.029 56.3278C110.751 56.1313 110.422 55.9953 110.041 55.9198C109.659 55.8442 109.252 55.8064 108.818 55.8064Z" fill="white"/>
<path d="M120.893 56.1238H116.498V53.6303H128.721V56.1238H124.326V65.6447H120.893V56.1238Z" fill="white"/>
<path d="M136.784 65.9166C135.848 65.9166 134.955 65.7957 134.105 65.5539C133.273 65.297 132.545 64.9117 131.921 64.3978C131.297 63.884 130.802 63.2417 130.438 62.471C130.074 61.7003 129.892 60.7935 129.892 59.7508V59.2974C129.892 58.3151 130.074 57.4537 130.438 56.7132C130.802 55.9727 131.297 55.3531 131.921 54.8543C132.545 54.3556 133.273 53.9854 134.105 53.7436C134.955 53.4867 135.848 53.3582 136.784 53.3582C137.72 53.3582 138.605 53.4867 139.437 53.7436C140.269 53.9854 140.997 54.3556 141.622 54.8543C142.263 55.3531 142.766 55.9727 143.13 56.7132C143.494 57.4537 143.676 58.3151 143.676 59.2974V59.7508C143.676 60.7784 143.494 61.6776 143.13 62.4483C142.766 63.2191 142.263 63.8614 141.622 64.3752C140.997 64.889 140.269 65.2744 139.437 65.5313C138.605 65.7882 137.72 65.9166 136.784 65.9166ZM136.784 63.3777C137.755 63.3777 138.561 63.0755 139.203 62.471C139.862 61.8665 140.191 60.9598 140.191 59.7508V59.2974C140.191 58.1942 139.862 57.3554 139.203 56.7812C138.561 56.1918 137.755 55.8971 136.784 55.8971C135.796 55.8971 134.981 56.1918 134.34 56.7812C133.698 57.3554 133.377 58.1942 133.377 59.2974V59.7508C133.377 60.9749 133.698 61.8892 134.34 62.4937C134.981 63.0831 135.796 63.3777 136.784 63.3777Z" fill="white"/>
<path d="M146.013 65.9167C145.875 65.9167 145.701 65.9091 145.493 65.894C145.285 65.894 145.112 65.8789 144.973 65.8487V63.1511C145.06 63.1662 145.19 63.1738 145.363 63.1738C145.693 63.1738 145.979 63.0907 146.221 62.9244C146.464 62.7431 146.664 62.4408 146.82 62.0177C146.993 61.5945 147.114 61.0354 147.184 60.3402C147.27 59.6299 147.314 58.7534 147.314 57.7106V53.6303H158.237V65.6447H154.804V56.1238H150.487V58.164C150.487 59.7206 150.391 61.0051 150.201 62.0177C150.027 63.0151 149.75 63.8009 149.368 64.3752C149.004 64.9495 148.536 65.35 147.964 65.5766C147.409 65.8033 146.759 65.9167 146.013 65.9167Z" fill="white"/>
<path d="M167.593 65.9166C166.657 65.9166 165.764 65.7957 164.914 65.5539C164.082 65.297 163.354 64.9117 162.73 64.3978C162.105 63.884 161.611 63.2417 161.247 62.471C160.883 61.7003 160.701 60.7935 160.701 59.7508V59.2974C160.701 58.3151 160.883 57.4537 161.247 56.7132C161.611 55.9727 162.105 55.3531 162.73 54.8543C163.354 54.3556 164.082 53.9854 164.914 53.7436C165.764 53.4867 166.657 53.3582 167.593 53.3582C168.529 53.3582 169.414 53.4867 170.246 53.7436C171.078 53.9854 171.806 54.3556 172.43 54.8543C173.072 55.3531 173.575 55.9727 173.939 56.7132C174.303 57.4537 174.485 58.3151 174.485 59.2974V59.7508C174.485 60.7784 174.303 61.6776 173.939 62.4483C173.575 63.2191 173.072 63.8614 172.43 64.3752C171.806 64.889 171.078 65.2744 170.246 65.5313C169.414 65.7882 168.529 65.9166 167.593 65.9166ZM167.593 63.3777C168.564 63.3777 169.37 63.0755 170.012 62.471C170.671 61.8665 171 60.9598 171 59.7508V59.2974C171 58.1942 170.671 57.3554 170.012 56.7812C169.37 56.1918 168.564 55.8971 167.593 55.8971C166.605 55.8971 165.79 56.1918 165.148 56.7812C164.507 57.3554 164.186 58.1942 164.186 59.2974V59.7508C164.186 60.9749 164.507 61.8892 165.148 62.4937C165.79 63.0831 166.605 63.3777 167.593 63.3777Z" fill="white"/>
<path d="M177.204 53.6303H187.087V56.1238H180.637V65.6447H177.204V53.6303Z" fill="white"/>
<path d="M189.163 53.6303H192.596V61.3376L198.734 53.6303H201.907V65.6447H198.474V57.9373L192.336 65.6447H189.163V53.6303Z" fill="white"/>
<path d="M207.819 61.1336C206.762 60.8313 205.99 60.378 205.505 59.7735C205.019 59.169 204.777 58.4587 204.777 57.6426C204.777 57.0532 204.889 56.5168 205.115 56.0331C205.357 55.5344 205.713 55.1113 206.181 54.7637C206.649 54.401 207.239 54.1214 207.95 53.925C208.678 53.7285 209.527 53.6303 210.498 53.6303H217V65.6447H213.567V61.4963H211.096L208.106 65.6447H204.256L207.819 61.1336ZM208.209 57.6426C208.209 58.1564 208.4 58.5343 208.782 58.776C209.181 59.0178 209.709 59.1388 210.368 59.1388H213.567V56.1238H210.368C209.709 56.1238 209.181 56.2523 208.782 56.5092C208.4 56.751 208.209 57.1288 208.209 57.6426Z" fill="white"/>
<path fill-rule="evenodd" clip-rule="evenodd" d="M64.4375 59.8602C64.3279 59.8526 64.2171 59.8487 64.1052 59.8487C61.838 59.8487 60 61.4496 60 63.4243C60 65.3991 61.838 67 64.1052 67C66.3724 67 68.2104 65.3991 68.2104 63.4243C68.2104 63.2727 68.1996 63.1234 68.1786 62.9767C66.2372 62.8413 64.6768 61.5295 64.4375 59.8602Z" fill="white"/>
<path fill-rule="evenodd" clip-rule="evenodd" d="M68.2104 55.5757C68.2104 53.6009 66.3724 52 64.1052 52C61.838 52 60 53.6009 60 55.5757C60 57.5504 61.838 59.1513 64.1052 59.1513C64.2102 59.1513 64.3143 59.1479 64.4173 59.1412C64.569 57.3831 66.1803 55.9796 68.1987 55.8475C68.2065 55.7578 68.2104 55.6671 68.2104 55.5757Z" fill="white"/>
<path fill-rule="evenodd" clip-rule="evenodd" d="M72.6031 59.1236C72.7714 59.142 72.9429 59.1514 73.117 59.1514C75.3842 59.1514 77.2222 57.5505 77.2222 55.5757C77.2222 53.601 75.3842 52.0001 73.117 52.0001C70.8498 52.0001 69.0118 53.601 69.0118 55.5757C69.0118 55.6731 69.0162 55.7697 69.025 55.8651C70.9415 56.0736 72.4476 57.4327 72.6031 59.1236Z" fill="white"/>
<path fill-rule="evenodd" clip-rule="evenodd" d="M69.0463 62.9582C69.0235 63.1107 69.0118 63.2663 69.0118 63.4243C69.0118 65.3991 70.8498 67 73.117 67C75.3842 67 77.2222 65.3991 77.2222 63.4243C77.2222 61.4496 75.3842 59.8487 73.117 59.8487C72.9356 59.8487 72.7569 59.8589 72.5818 59.8788C72.3423 61.4807 70.8855 62.7496 69.0463 62.9582Z" fill="white"/>
</svg>
