<svg width="277" height="115" viewBox="0 0 277 115" fill="none" xmlns="http://www.w3.org/2000/svg">
<rect x="-0.00292969" y="-0.00390625" width="277" height="115" rx="13.3329" fill="#131418"/>
<path d="M116.365 68.0896H108.815V52.5297H100V46.4657H125.416V52.5297H116.365V68.0896Z" fill="white"/>
<path d="M164.935 46.4657H157.45V68.0896H177V62.2547H164.935V46.4657Z" fill="white"/>
<path d="M146.367 54.2297H152.734C152.734 51.6 150.171 45 141.179 45C129.629 45 127.176 52.5297 127.176 56.435C127.176 66.5444 136.134 69.9952 144.047 68.7602C149.48 67.9122 152.734 63.4802 152.734 59.5224H146.367C146.367 64.9033 134.131 65.5545 134.131 56.9744C134.131 48.3943 146.367 49.29 146.367 54.2297Z" fill="white"/>
</svg>
