<svg width="278" height="115" viewBox="0 0 278 115" fill="none" xmlns="http://www.w3.org/2000/svg">
<rect x="0.662842" y="-0.00390625" width="277" height="115" rx="13.3329" fill="#131418"/>
<path d="M166.099 40.3664C166.216 42.0107 166.329 43.6044 166.449 45.3066C165.505 45.4478 164.579 45.5861 163.651 45.7243C161.291 46.0767 158.919 46.3562 156.575 46.7962C153.34 47.4057 151.659 49.3295 151.09 52.8618C151.001 53.4192 150.939 53.9812 150.843 54.7126C151.068 54.4465 151.191 54.3112 151.303 54.167C155.158 49.1912 163.528 49.7041 166.736 55.1259C168.227 57.6443 168.579 60.411 168.306 63.2773C168.085 65.6083 167.33 67.7476 165.886 69.6089C164.036 71.995 161.537 73.1263 158.625 73.3553C156.493 73.5233 154.385 73.3612 152.407 72.4083C149.523 71.0197 147.869 68.6129 146.976 65.6009C146.151 62.8208 146.004 59.962 146.142 57.0839C146.28 54.2161 146.555 51.3632 147.57 48.653C149.094 44.5811 152.055 42.3258 156.27 41.7089C159.281 41.2688 162.295 40.8347 165.307 40.4036C165.543 40.3694 165.785 40.3783 166.094 40.3649L166.099 40.3664ZM157.434 55.398C157.427 55.4441 157.42 55.4902 157.412 55.5348C157.096 55.5348 156.775 55.505 156.461 55.5392C154.617 55.7384 152.855 56.1696 151.482 57.5536C151.272 57.7647 151.027 58.0844 151.032 58.3475C151.062 59.9754 150.999 61.63 151.266 63.2252C152.086 68.1208 157.949 70.1917 161.651 66.93C163.599 65.2144 163.857 62.91 163.605 60.4823C163.375 58.2791 162.327 56.6468 160.21 55.9213C159.327 55.618 158.361 55.563 157.433 55.3965L157.434 55.398Z" fill="white"/>
<path d="M101 57.8093C101.737 59.9501 103.35 60.8718 105.427 61.187C108.726 61.688 111.798 60.8109 114.803 59.5903C118.874 57.9372 122.408 55.4708 125.317 52.1422C126.785 50.4638 127.966 48.5802 128.324 46.3056C128.541 44.9245 128.154 43.6787 127.214 42.6261L127.345 42.473C128.27 43.2193 129.252 43.9061 130.108 44.7268C131.418 45.9815 132.661 47.315 133.19 49.1466C133.771 51.1566 133.414 53.0892 132.654 54.9609C131.477 57.8584 129.581 60.2103 127.257 62.2604C124.334 64.8397 121.04 66.7189 117.374 67.9439C115.274 68.6456 113.11 69.0455 110.904 69.0425C109.283 69.0395 107.674 68.7912 106.163 68.1208C104.398 67.3373 103.09 66.1123 102.329 64.2733C101.472 62.1994 101.025 60.0586 101 57.8093Z" fill="white"/>
<path d="M106.815 52.5228C106.138 52.441 105.471 52.4425 104.851 52.2716C103.284 51.8419 102.755 50.8042 103.251 49.2269C103.949 47.0147 105.49 45.4285 107.183 43.9953C109.916 41.6821 113.077 40.3352 116.627 40.02C117.36 39.9546 118.137 40.0557 118.856 40.2311C120.416 40.6102 120.955 41.6866 120.489 43.249C119.929 45.1267 118.635 46.4766 117.237 47.6852C114.906 49.6996 112.269 51.2101 109.283 52.0129C108.471 52.2314 107.636 52.3563 106.813 52.5228H106.815Z" fill="white"/>
<path d="M110.985 73.3211C121.059 75.7696 133.126 67.6198 135.355 59.0552C135.33 63.0379 132.728 69.0633 127.356 72.3414C122.071 75.5674 116.597 75.8127 110.985 73.3211Z" fill="white"/>
<path d="M176 70.2259C176.01 72.0634 174.732 73.3687 172.934 73.3553C171.201 73.3434 169.927 72.0545 169.921 70.3106C169.915 68.5073 171.188 67.1426 172.885 67.1307C174.691 67.1173 175.99 68.4092 176 70.2259Z" fill="white"/>
</svg>
