<svg width="48" height="48" viewBox="0 0 48 48" fill="none" xmlns="http://www.w3.org/2000/svg">
<path d="M19.4126 7.0442C21.7355 4.70077 25.5235 4.70077 27.8463 7.0442L29.1565 8.36595C30.1161 9.33398 31.3795 9.9424 32.7346 10.0891L34.5848 10.2893C37.8653 10.6443 40.2271 13.6059 39.8432 16.8831L39.6267 18.7315C39.4681 20.0853 39.7802 21.4524 40.5104 22.6033L41.5075 24.1747C43.2753 26.9608 42.4324 30.6538 39.6308 32.397L38.0506 33.3802C36.8934 34.1003 36.0191 35.1967 35.5745 36.4852L34.9676 38.2445C33.8915 41.3637 30.4787 43.0072 27.369 41.9037L25.6151 41.2814C24.3306 40.8255 22.9283 40.8255 21.6438 41.2814L19.8899 41.9037C16.7803 43.0072 13.3674 41.3637 12.2913 38.2445L11.6844 36.4852C11.2399 35.1967 10.3656 34.1003 9.20829 33.3802L7.62814 32.397C4.82657 30.6538 3.98367 26.9608 5.75145 24.1747L6.74852 22.6033C7.47876 21.4524 7.7908 20.0853 7.63223 18.7315L7.41572 16.8831C7.03186 13.6059 9.39362 10.6443 12.6741 10.2893L14.5243 10.0891C15.8795 9.9424 17.1429 9.33398 18.1024 8.36595L19.4126 7.0442Z" stroke="white" stroke-width="1.1875"/>
<g opacity="0.5" filter="url(#filter0_f_6921_409)">
<path d="M19.4126 7.0442C21.7355 4.70077 25.5235 4.70077 27.8463 7.0442L29.1565 8.36595C30.1161 9.33398 31.3795 9.9424 32.7346 10.0891L34.5848 10.2893C37.8653 10.6443 40.2271 13.6059 39.8432 16.8831L39.6267 18.7315C39.4681 20.0853 39.7802 21.4524 40.5104 22.6033L41.5075 24.1747C43.2753 26.9608 42.4324 30.6538 39.6308 32.397L38.0506 33.3802C36.8934 34.1003 36.0191 35.1967 35.5745 36.4852L34.9676 38.2445C33.8915 41.3637 30.4787 43.0072 27.369 41.9037L25.6151 41.2814C24.3306 40.8255 22.9283 40.8255 21.6438 41.2814L19.8899 41.9037C16.7803 43.0072 13.3674 41.3637 12.2913 38.2445L11.6844 36.4852C11.2399 35.1967 10.3656 34.1003 9.20829 33.3802L7.62814 32.397C4.82657 30.6538 3.98367 26.9608 5.75145 24.1747L6.74852 22.6033C7.47876 21.4524 7.7908 20.0853 7.63223 18.7315L7.41572 16.8831C7.03186 13.6059 9.39362 10.6443 12.6741 10.2893L14.5243 10.0891C15.8795 9.9424 17.1429 9.33398 18.1024 8.36595L19.4126 7.0442Z" stroke="#01ABC2" stroke-width="2.375"/>
</g>
<path d="M25.1912 25.1113H29.1105V24.1662H25.1912V25.1113ZM25.1912 22.4933H29.1105V21.5481H25.1912V22.4933ZM17.1306 27.8012H23.4906V27.6443C23.4906 27.093 23.2087 26.6661 22.6447 26.3637C22.0807 26.0612 21.3027 25.91 20.3106 25.91C19.3186 25.91 18.5402 26.0612 17.9756 26.3637C17.411 26.6661 17.1293 27.093 17.1306 27.6443V27.8012ZM20.3106 24.3836C20.7163 24.3836 21.0579 24.2471 21.3354 23.9743C21.6135 23.7008 21.7526 23.3647 21.7526 22.9658C21.7526 22.567 21.6135 22.2311 21.3354 21.9583C21.0572 21.6855 20.7157 21.5487 20.3106 21.5481C19.9056 21.5475 19.564 21.6842 19.2859 21.9583C19.0077 22.2324 18.8687 22.5682 18.8687 22.9658C18.8687 23.3634 19.0077 23.6996 19.2859 23.9743C19.564 24.249 19.9056 24.3854 20.3106 24.3836ZM16.0222 31.2907C15.5794 31.2907 15.2099 31.1452 14.9138 30.8541C14.6178 30.563 14.4694 30.1994 14.4688 29.7634V19.586C14.4688 19.1506 14.6171 18.7873 14.9138 18.4962C15.2106 18.2051 15.5797 18.0592 16.0213 18.0586H30.2198C30.662 18.0586 31.0312 18.2045 31.3272 18.4962C31.6233 18.7879 31.7717 19.1512 31.7723 19.586V29.7643C31.7723 30.1991 31.624 30.5623 31.3272 30.8541C31.0305 31.1458 30.6614 31.2914 30.2198 31.2907H16.0222Z" fill="white"/>
<g filter="url(#filter1_f_6921_409)">
<path d="M25.1912 25.1113H29.1105V24.1662H25.1912V25.1113ZM25.1912 22.4933H29.1105V21.5481H25.1912V22.4933ZM17.1306 27.8012H23.4906V27.6443C23.4906 27.093 23.2087 26.6661 22.6447 26.3637C22.0807 26.0612 21.3027 25.91 20.3106 25.91C19.3186 25.91 18.5402 26.0612 17.9756 26.3637C17.411 26.6661 17.1293 27.093 17.1306 27.6443V27.8012ZM20.3106 24.3836C20.7163 24.3836 21.0579 24.2471 21.3354 23.9743C21.6135 23.7008 21.7526 23.3647 21.7526 22.9658C21.7526 22.567 21.6135 22.2311 21.3354 21.9583C21.0572 21.6855 20.7157 21.5487 20.3106 21.5481C19.9056 21.5475 19.564 21.6842 19.2859 21.9583C19.0077 22.2324 18.8687 22.5682 18.8687 22.9658C18.8687 23.3634 19.0077 23.6996 19.2859 23.9743C19.564 24.249 19.9056 24.3854 20.3106 24.3836ZM16.0222 31.2907C15.5794 31.2907 15.2099 31.1452 14.9138 30.8541C14.6178 30.563 14.4694 30.1994 14.4688 29.7634V19.586C14.4688 19.1506 14.6171 18.7873 14.9138 18.4962C15.2106 18.2051 15.5797 18.0592 16.0213 18.0586H30.2198C30.662 18.0586 31.0312 18.2045 31.3272 18.4962C31.6233 18.7879 31.7717 19.1512 31.7723 19.586V29.7643C31.7723 30.1991 31.624 30.5623 31.3272 30.8541C31.0305 31.1458 30.6614 31.2914 30.2198 31.2907H16.0222Z" fill="white"/>
</g>
<defs>
<filter id="filter0_f_6921_409" x="0.076416" y="0.537109" width="47.1061" height="46.4609" filterUnits="userSpaceOnUse" color-interpolation-filters="sRGB">
<feFlood flood-opacity="0" result="BackgroundImageFix"/>
<feBlend mode="normal" in="SourceGraphic" in2="BackgroundImageFix" result="shape"/>
<feGaussianBlur stdDeviation="1.78125" result="effect1_foregroundBlur_6921_409"/>
</filter>
<filter id="filter1_f_6921_409" x="13.2812" y="16.8711" width="19.6786" height="15.6074" filterUnits="userSpaceOnUse" color-interpolation-filters="sRGB">
<feFlood flood-opacity="0" result="BackgroundImageFix"/>
<feBlend mode="normal" in="SourceGraphic" in2="BackgroundImageFix" result="shape"/>
<feGaussianBlur stdDeviation="0.59375" result="effect1_foregroundBlur_6921_409"/>
</filter>
</defs>
</svg>
