<svg width="48" height="48" viewBox="0 0 48 48" fill="none" xmlns="http://www.w3.org/2000/svg">
<path d="M19.4126 7.0442C21.7355 4.70077 25.5235 4.70077 27.8463 7.0442L29.1565 8.36595C30.1161 9.33398 31.3795 9.9424 32.7346 10.0891L34.5848 10.2893C37.8653 10.6443 40.2271 13.6059 39.8432 16.8831L39.6267 18.7315C39.4681 20.0853 39.7802 21.4524 40.5104 22.6033L41.5075 24.1747C43.2753 26.9608 42.4324 30.6538 39.6308 32.397L38.0506 33.3802C36.8934 34.1003 36.0191 35.1967 35.5745 36.4852L34.9676 38.2445C33.8915 41.3637 30.4787 43.0072 27.369 41.9037L25.6151 41.2814C24.3306 40.8255 22.9283 40.8255 21.6438 41.2814L19.8899 41.9037C16.7803 43.0072 13.3674 41.3637 12.2913 38.2445L11.6844 36.4852C11.2399 35.1967 10.3656 34.1003 9.20829 33.3802L7.62814 32.397C4.82657 30.6538 3.98367 26.9608 5.75145 24.1747L6.74852 22.6033C7.47876 21.4524 7.7908 20.0853 7.63223 18.7315L7.41572 16.8831C7.03186 13.6059 9.39362 10.6443 12.6741 10.2893L14.5243 10.0891C15.8795 9.9424 17.1429 9.33398 18.1024 8.36595L19.4126 7.0442Z" stroke="white" stroke-width="1.1875"/>
<g opacity="0.5" filter="url(#filter0_f_6921_392)">
<path d="M19.4126 7.0442C21.7355 4.70077 25.5235 4.70077 27.8463 7.0442L29.1565 8.36595C30.1161 9.33398 31.3795 9.9424 32.7346 10.0891L34.5848 10.2893C37.8653 10.6443 40.2271 13.6059 39.8432 16.8831L39.6267 18.7315C39.4681 20.0853 39.7802 21.4524 40.5104 22.6033L41.5075 24.1747C43.2753 26.9608 42.4324 30.6538 39.6308 32.397L38.0506 33.3802C36.8934 34.1003 36.0191 35.1967 35.5745 36.4852L34.9676 38.2445C33.8915 41.3637 30.4787 43.0072 27.369 41.9037L25.6151 41.2814C24.3306 40.8255 22.9283 40.8255 21.6438 41.2814L19.8899 41.9037C16.7803 43.0072 13.3674 41.3637 12.2913 38.2445L11.6844 36.4852C11.2399 35.1967 10.3656 34.1003 9.20829 33.3802L7.62814 32.397C4.82657 30.6538 3.98367 26.9608 5.75145 24.1747L6.74852 22.6033C7.47876 21.4524 7.7908 20.0853 7.63223 18.7315L7.41572 16.8831C7.03186 13.6059 9.39362 10.6443 12.6741 10.2893L14.5243 10.0891C15.8795 9.9424 17.1429 9.33398 18.1024 8.36595L19.4126 7.0442Z" stroke="#01ABC2" stroke-width="2.375"/>
</g>
<path fill-rule="evenodd" clip-rule="evenodd" d="M29.6259 26.6057C29.8864 26.3413 30.3088 26.3413 30.5693 26.6057L32.3481 28.4111C32.6086 28.6755 32.6086 29.1042 32.3481 29.3685C32.0876 29.6329 31.6653 29.6329 31.4047 29.3685L30.7647 28.7189V32.5006C30.7647 32.8745 30.466 33.1776 30.0976 33.1776C29.7292 33.1776 29.4306 32.8745 29.4306 32.5006V28.7189L28.7905 29.3685C28.53 29.6329 28.1076 29.6329 27.8471 29.3685C27.5866 29.1042 27.5866 28.6755 27.8471 28.4111L29.6259 26.6057Z" fill="white"/>
<path d="M22.0929 18.0576H25.6506C29.0047 18.0576 30.6818 18.0576 31.7238 19.1152C32.4741 19.8766 32.6842 20.9722 32.743 22.7967H15.0005C15.0594 20.9722 15.2694 19.8766 16.0197 19.1152C17.0617 18.0576 18.7388 18.0576 22.0929 18.0576Z" fill="white"/>
<path fill-rule="evenodd" clip-rule="evenodd" d="M22.0929 32.5006H25.6506C26.5897 32.5006 27.3974 32.5006 28.0964 32.4773V30.9084C27.6607 30.8592 27.2379 30.6651 26.9038 30.326C26.1222 29.5328 26.1222 28.2468 26.9038 27.4537L28.6826 25.6483C29.4641 24.8551 30.7311 24.8551 31.5127 25.6483L32.7603 26.9145C32.7658 26.4177 32.7658 25.8744 32.7658 25.2791C32.7658 24.8802 32.7658 24.5046 32.7642 24.1507H14.9793C14.9777 24.5046 14.9777 24.8802 14.9777 25.2791C14.9777 28.6833 14.9777 30.3854 16.0197 31.443C17.0617 32.5006 18.7388 32.5006 22.0929 32.5006ZM17.8682 28.8898C17.8682 28.5159 18.1669 28.2128 18.5353 28.2128H22.0929C22.4613 28.2128 22.76 28.5159 22.76 28.8898C22.76 29.2637 22.4613 29.5668 22.0929 29.5668H18.5353C18.1669 29.5668 17.8682 29.2637 17.8682 28.8898ZM24.3165 28.2128C23.948 28.2128 23.6494 28.5159 23.6494 28.8898C23.6494 29.2637 23.948 29.5668 24.3165 29.5668H25.6506C26.019 29.5668 26.3176 29.2637 26.3176 28.8898C26.3176 28.5159 26.019 28.2128 25.6506 28.2128H24.3165Z" fill="white"/>
<g filter="url(#filter1_f_6921_392)">
<path fill-rule="evenodd" clip-rule="evenodd" d="M29.6259 26.6057C29.8864 26.3413 30.3088 26.3413 30.5693 26.6057L32.3481 28.4111C32.6086 28.6755 32.6086 29.1042 32.3481 29.3685C32.0876 29.6329 31.6653 29.6329 31.4047 29.3685L30.7647 28.7189V32.5006C30.7647 32.8745 30.466 33.1776 30.0976 33.1776C29.7292 33.1776 29.4306 32.8745 29.4306 32.5006V28.7189L28.7905 29.3685C28.53 29.6329 28.1076 29.6329 27.8471 29.3685C27.5866 29.1042 27.5866 28.6755 27.8471 28.4111L29.6259 26.6057Z" fill="white"/>
<path d="M22.0929 18.0576H25.6506C29.0047 18.0576 30.6818 18.0576 31.7238 19.1152C32.4741 19.8766 32.6842 20.9722 32.743 22.7967H15.0005C15.0594 20.9722 15.2694 19.8766 16.0197 19.1152C17.0617 18.0576 18.7388 18.0576 22.0929 18.0576Z" fill="white"/>
<path fill-rule="evenodd" clip-rule="evenodd" d="M22.0929 32.5006H25.6506C26.5897 32.5006 27.3974 32.5006 28.0964 32.4773V30.9084C27.6607 30.8592 27.2379 30.6651 26.9038 30.326C26.1222 29.5328 26.1222 28.2468 26.9038 27.4537L28.6826 25.6483C29.4641 24.8551 30.7311 24.8551 31.5127 25.6483L32.7603 26.9145C32.7658 26.4177 32.7658 25.8744 32.7658 25.2791C32.7658 24.8802 32.7658 24.5046 32.7642 24.1507H14.9793C14.9777 24.5046 14.9777 24.8802 14.9777 25.2791C14.9777 28.6833 14.9777 30.3854 16.0197 31.443C17.0617 32.5006 18.7388 32.5006 22.0929 32.5006ZM17.8682 28.8898C17.8682 28.5159 18.1669 28.2128 18.5353 28.2128H22.0929C22.4613 28.2128 22.76 28.5159 22.76 28.8898C22.76 29.2637 22.4613 29.5668 22.0929 29.5668H18.5353C18.1669 29.5668 17.8682 29.2637 17.8682 28.8898ZM24.3165 28.2128C23.948 28.2128 23.6494 28.5159 23.6494 28.8898C23.6494 29.2637 23.948 29.5668 24.3165 29.5668H25.6506C26.019 29.5668 26.3176 29.2637 26.3176 28.8898C26.3176 28.5159 26.019 28.2128 25.6506 28.2128H24.3165Z" fill="white"/>
</g>
<defs>
<filter id="filter0_f_6921_392" x="0.076416" y="0.537109" width="47.1061" height="46.4609" filterUnits="userSpaceOnUse" color-interpolation-filters="sRGB">
<feFlood flood-opacity="0" result="BackgroundImageFix"/>
<feBlend mode="normal" in="SourceGraphic" in2="BackgroundImageFix" result="shape"/>
<feGaussianBlur stdDeviation="1.78125" result="effect1_foregroundBlur_6921_392"/>
</filter>
<filter id="filter1_f_6921_392" x="14.2058" y="17.2857" width="19.332" height="16.6639" filterUnits="userSpaceOnUse" color-interpolation-filters="sRGB">
<feFlood flood-opacity="0" result="BackgroundImageFix"/>
<feBlend mode="normal" in="SourceGraphic" in2="BackgroundImageFix" result="shape"/>
<feGaussianBlur stdDeviation="0.385937" result="effect1_foregroundBlur_6921_392"/>
</filter>
</defs>
</svg>
