<svg width="48" height="48" viewBox="0 0 48 48" fill="none" xmlns="http://www.w3.org/2000/svg">
<path d="M19.4126 7.0442C21.7355 4.70077 25.5235 4.70077 27.8463 7.0442L29.1565 8.36595C30.1161 9.33398 31.3795 9.9424 32.7346 10.0891L34.5848 10.2893C37.8653 10.6443 40.2271 13.6059 39.8432 16.8831L39.6267 18.7315C39.4681 20.0853 39.7802 21.4524 40.5104 22.6033L41.5075 24.1747C43.2753 26.9608 42.4324 30.6538 39.6308 32.397L38.0506 33.3802C36.8934 34.1003 36.0191 35.1967 35.5745 36.4852L34.9676 38.2445C33.8915 41.3637 30.4787 43.0072 27.369 41.9037L25.6151 41.2814C24.3306 40.8255 22.9283 40.8255 21.6438 41.2814L19.8899 41.9037C16.7803 43.0072 13.3674 41.3637 12.2913 38.2445L11.6844 36.4852C11.2399 35.1967 10.3656 34.1003 9.20829 33.3802L7.62814 32.397C4.82657 30.6538 3.98367 26.9608 5.75145 24.1747L6.74852 22.6033C7.47876 21.4524 7.7908 20.0853 7.63223 18.7315L7.41572 16.8831C7.03186 13.6059 9.39362 10.6443 12.6741 10.2893L14.5243 10.0891C15.8795 9.9424 17.1429 9.33398 18.1024 8.36595L19.4126 7.0442Z" stroke="white" stroke-width="1.1875"/>
<g opacity="0.5" filter="url(#filter0_f_6921_388)">
<path d="M19.4126 7.0442C21.7355 4.70077 25.5235 4.70077 27.8463 7.0442L29.1565 8.36595C30.1161 9.33398 31.3795 9.9424 32.7346 10.0891L34.5848 10.2893C37.8653 10.6443 40.2271 13.6059 39.8432 16.8831L39.6267 18.7315C39.4681 20.0853 39.7802 21.4524 40.5104 22.6033L41.5075 24.1747C43.2753 26.9608 42.4324 30.6538 39.6308 32.397L38.0506 33.3802C36.8934 34.1003 36.0191 35.1967 35.5745 36.4852L34.9676 38.2445C33.8915 41.3637 30.4787 43.0072 27.369 41.9037L25.6151 41.2814C24.3306 40.8255 22.9283 40.8255 21.6438 41.2814L19.8899 41.9037C16.7803 43.0072 13.3674 41.3637 12.2913 38.2445L11.6844 36.4852C11.2399 35.1967 10.3656 34.1003 9.20829 33.3802L7.62814 32.397C4.82657 30.6538 3.98367 26.9608 5.75145 24.1747L6.74852 22.6033C7.47876 21.4524 7.7908 20.0853 7.63223 18.7315L7.41572 16.8831C7.03186 13.6059 9.39362 10.6443 12.6741 10.2893L14.5243 10.0891C15.8795 9.9424 17.1429 9.33398 18.1024 8.36595L19.4126 7.0442Z" stroke="#01ABC2" stroke-width="2.375"/>
</g>
<path d="M30.0272 17.1774C30.0272 17.1774 31.7551 16.5037 31.6111 18.1399C31.5631 18.8137 31.1311 21.1717 30.7952 23.7223L29.6433 31.2777C29.6433 31.2777 29.5473 32.3845 28.6834 32.577C27.8195 32.7695 26.5236 31.9033 26.2836 31.7107C26.0917 31.5664 22.6841 29.4008 21.4842 28.3421C21.1482 28.0534 20.7642 27.4759 21.5321 26.8021L26.5716 21.9898C27.1476 21.4123 27.7235 20.0649 25.3237 21.7011L18.6045 26.2728C18.6045 26.2728 17.8366 26.754 16.3967 26.3209L13.2771 25.3585C13.2771 25.3585 12.1252 24.6366 14.093 23.9147C18.8925 21.6529 24.7958 19.343 30.0272 17.1774Z" fill="white"/>
<g filter="url(#filter1_f_6921_388)">
<path d="M30.0272 17.1774C30.0272 17.1774 31.7551 16.5037 31.6111 18.1399C31.5631 18.8137 31.1311 21.1717 30.7952 23.7223L29.6433 31.2777C29.6433 31.2777 29.5473 32.3845 28.6834 32.577C27.8195 32.7695 26.5236 31.9033 26.2836 31.7107C26.0917 31.5664 22.6841 29.4008 21.4842 28.3421C21.1482 28.0534 20.7642 27.4759 21.5321 26.8021L26.5716 21.9898C27.1476 21.4123 27.7235 20.0649 25.3237 21.7011L18.6045 26.2728C18.6045 26.2728 17.8366 26.754 16.3967 26.3209L13.2771 25.3585C13.2771 25.3585 12.1252 24.6366 14.093 23.9147C18.8925 21.6529 24.7958 19.343 30.0272 17.1774Z" fill="white"/>
</g>
<defs>
<filter id="filter0_f_6921_388" x="0.076416" y="0.537109" width="47.1061" height="46.4609" filterUnits="userSpaceOnUse" color-interpolation-filters="sRGB">
<feFlood flood-opacity="0" result="BackgroundImageFix"/>
<feBlend mode="normal" in="SourceGraphic" in2="BackgroundImageFix" result="shape"/>
<feGaussianBlur stdDeviation="1.78125" result="effect1_foregroundBlur_6921_388"/>
</filter>
<filter id="filter1_f_6921_388" x="10.3889" y="14.4869" width="23.7839" height="20.6707" filterUnits="userSpaceOnUse" color-interpolation-filters="sRGB">
<feFlood flood-opacity="0" result="BackgroundImageFix"/>
<feBlend mode="normal" in="SourceGraphic" in2="BackgroundImageFix" result="shape"/>
<feGaussianBlur stdDeviation="1.27656" result="effect1_foregroundBlur_6921_388"/>
</filter>
</defs>
</svg>
