<svg width="245" height="60" viewBox="0 0 245 60" fill="none" xmlns="http://www.w3.org/2000/svg">
<path d="M206.669 25.9258H205.337V18.2031C205.337 16.4987 205.044 15.2205 204.459 14.3683C203.873 13.4984 203.021 13.0634 201.902 13.0634C201.174 13.0634 200.446 13.2499 199.718 13.6227C198.991 13.9955 198.36 14.5103 197.828 15.1672C197.295 15.8063 196.913 16.5342 196.683 17.3509V25.9258H195.351V6.48581H196.683V15.3803C197.251 14.2973 198.041 13.4363 199.053 12.7971C200.065 12.158 201.139 11.8385 202.275 11.8385C203.056 11.8385 203.722 11.9805 204.272 12.2645C204.823 12.5486 205.275 12.9569 205.63 13.4895C205.985 14.0221 206.243 14.6612 206.403 15.4069C206.58 16.1525 206.669 17.0047 206.669 17.9634V25.9258ZM210.561 20.0672V12.0781H211.893V19.8807C211.893 21.6028 212.177 22.8899 212.745 23.7421C213.331 24.5765 214.21 24.9937 215.381 24.9937C216.163 24.9937 216.908 24.8251 217.618 24.4878C218.346 24.1327 218.985 23.6445 219.536 23.0231C220.086 22.384 220.494 21.6472 220.761 20.8128V12.0781H222.092V24.1682C222.092 24.3812 222.137 24.541 222.225 24.6475C222.332 24.7541 222.474 24.8162 222.652 24.8339V25.9258C222.474 25.9435 222.332 25.9524 222.225 25.9524C222.137 25.9524 222.057 25.9435 221.986 25.9258C221.684 25.8903 221.435 25.766 221.24 25.553C221.045 25.3222 220.938 25.047 220.921 24.7274L220.894 22.6503C220.29 23.751 219.456 24.6209 218.391 25.26C217.343 25.8814 216.207 26.1921 214.982 26.1921C213.526 26.1921 212.426 25.6772 211.68 24.6475C210.934 23.6178 210.561 22.091 210.561 20.0672ZM232.795 26.1921C231.712 26.1921 230.7 25.908 229.759 25.3399C228.819 24.7541 228.082 24.0262 227.549 23.1563V25.9258H226.324V6.48581H227.656V15.0873C228.313 14.1286 229.085 13.3475 229.972 12.7439C230.878 12.1403 231.916 11.8385 233.088 11.8385C234.082 11.8385 234.961 12.0426 235.725 12.4509C236.506 12.8593 237.172 13.4096 237.722 14.102C238.272 14.7944 238.689 15.5667 238.973 16.4188C239.275 17.271 239.426 18.1498 239.426 19.0552C239.426 19.9961 239.258 20.9016 238.92 21.7715C238.583 22.6236 238.112 23.387 237.509 24.0617C236.905 24.7185 236.204 25.2423 235.405 25.6329C234.606 26.0057 233.736 26.1921 232.795 26.1921ZM232.529 24.9937C233.346 24.9937 234.091 24.8339 234.766 24.5144C235.441 24.1771 236.018 23.7244 236.497 23.1563C236.994 22.5881 237.376 21.949 237.642 21.2389C237.926 20.5287 238.068 19.8009 238.068 19.0552C238.068 18.0078 237.846 17.0313 237.402 16.1259C236.958 15.2027 236.337 14.4571 235.538 13.889C234.739 13.3209 233.816 13.0368 232.769 13.0368C231.988 13.0368 231.268 13.2143 230.612 13.5694C229.955 13.9067 229.378 14.3506 228.881 14.9009C228.401 15.4513 227.993 16.0549 227.656 16.7118V21.2921C227.727 21.807 227.922 22.2952 228.242 22.7568C228.561 23.2006 228.961 23.5912 229.44 23.9285C229.937 24.2481 230.452 24.5055 230.984 24.7008C231.535 24.8961 232.05 24.9937 232.529 24.9937Z" fill="#01ABC2"/>
<path d="M109.913 19.1447H117.846L107.231 47.8681H99.0168L88.4019 19.1447H96.3352L103.095 39.2523L109.913 19.1447Z" fill="white"/>
<path d="M50.2646 47.8681H58.1978L47.583 19.1447H39.3688L28.7539 47.8681H36.6872L43.4469 27.7604L50.2646 47.8681Z" fill="white"/>
<path d="M61.1438 47.8681V26.2693H56.2847V19.1447H61.1438V13.3414L68.3498 11.1025V19.1447H74.6634V26.2693H68.3498V47.8681H61.1438Z" fill="white"/>
<path d="M136.183 47.8681V26.2693H131.324V19.1447H136.183V13.3414L143.389 11.1025V19.1447H149.703V26.2693H143.389V47.8681H136.183Z" fill="white"/>
<path d="M85.5469 19.1447V47.8681H78.3408V19.1447H85.5469Z" fill="white"/>
<path d="M127.907 47.8681V19.1447H120.701V47.8681H127.907Z" fill="white"/>
<path d="M26.0929 47.8681V24.3192C24.1262 22.297 23.0229 21.1627 21.0562 19.1447H10.7264L7.21843 22.7516V19.1447H0V47.8681H7.20603V26.5581H18.8828V47.8681H26.0929Z" fill="white"/>
<path d="M170.67 22.6399L165.59 38.4494L158.326 19.149H150.446L161.9 46.9504C161.231 48.9047 158.76 56.0717 158.76 56.0717L164.974 59.0753L175.9 29.0478C173.403 27.75 171.489 25.4387 170.67 22.6399Z" fill="white"/>
<path fill-rule="evenodd" clip-rule="evenodd" d="M180.988 27.0935C185.404 27.0935 188.983 23.5138 188.983 19.098C188.983 14.6822 185.404 11.1025 180.988 11.1025C176.572 11.1025 172.993 14.6822 172.993 19.098C172.993 23.5138 176.572 27.0935 180.988 27.0935ZM181.715 15.4639H180.567L178.808 16.1389L179.133 17.3642L180.395 16.98V22.7325H181.715V15.4639Z" fill="#01ABC2"/>
</svg>
